<svg xmlns="http://www.w3.org/2000/svg" width="44" height="44"><g fill="none"><path fill="#4DA34D" d="M22 4c5.54 0 10.637 2.493 14.011 6.69l-7.65-1.025-.53 3.965 11.893 1.593a2 2 0 0 0 2.248-1.717l1.592-11.894-3.964-.531-.886 6.616A21.88 21.88 0 0 0 22 0C10.213 0 .561 9.318.024 20.974-.002 21.536.464 22 1.026 22h2.003c.54 0 .968-.431.997-.972C4.533 11.553 12.401 4 22 4z"/><path fill="#9EDB9E" d="M22 40c-5.54 0-10.637-2.493-14.011-6.69l7.65 1.025.53-3.965-11.893-1.593a2.01 2.01 0 0 0-2.248 1.717L.436 42.388l2.973.398a1 1 0 0 0 1.124-.858l.753-5.625A21.88 21.88 0 0 0 22 44c11.787 0 21.439-9.318 21.976-20.974.026-.562-.44-1.026-1.002-1.026h-2.003c-.54 0-.968.431-.997.972C39.468 32.447 31.599 40 22 40z"/></g></svg>