<svg xmlns="http://www.w3.org/2000/svg" width="44" height="46"><g fill="none"><path fill="#B3B3B3" d="M43 9H12V5h31a1 1 0 0 1 1 1v2a1 1 0 0 1-1 1z"/><path fill="#898989" d="M19 5h4v4h-4z"/><path fill="#B3B3B3" d="M43 41H12v-4h31a1 1 0 0 1 1 1v2a1 1 0 0 1-1 1z"/><path fill="#898989" d="M19 37h4v4h-4z"/><path fill="#B3B3B3" d="M43 25H30v-4h13a1 1 0 0 1 1 1v2a1 1 0 0 1-1 1z"/><path fill="#898989" d="M37 21h4v4h-4z"/><path fill="#43A6DD" d="M12 9H1a1 1 0 0 1-1-1V6a1 1 0 0 1 1-1h11v4zm18 16H1a1 1 0 0 1-1-1v-2a1 1 0 0 1 1-1h29v4zM12 41H1a1 1 0 0 1-1-1v-2a1 1 0 0 1 1-1h11v4z"/><circle cx="13" cy="7" r="7" fill="#E6E6E6"/><circle cx="31" cy="23" r="7" fill="#E6E6E6"/><circle cx="13" cy="39" r="7" fill="#E6E6E6"/></g></svg>