<svg xmlns="http://www.w3.org/2000/svg" width="44" height="44"><g fill="none"><path fill="#EFD358" d="M38 44V5a5 5 0 0 0-5-5H5c1.634 0 1.088 1.788 2 3 .629.836 3 .873 3 2v34a5 5 0 0 0 5 5h23z"/><path fill="#A67C52" d="M10 6H0V5a5 5 0 0 1 10 0v1z"/><path fill="#335262" d="M20 27.414l-4.707-4.707a.999.999 0 0 1 0-1.414L20 16.586 21.414 18l-4 4 4 4L20 27.414zm8 0L26.586 26l4-4-4-4L28 16.586l4.707 4.707a.999.999 0 0 1 0 1.414L28 27.414z"/><path fill="#A67C52" d="M20 38v1c0 4.5-5 5-5 5h24a5 5 0 0 0 5-5v-1H20z"/></g></svg>