<svg xmlns="http://www.w3.org/2000/svg" width="46" height="46"><g fill="none"><path fill="#B3B3B3" d="M5 46a1 1 0 0 1-1-1v-4a1 1 0 0 1 2 0v4a1 1 0 0 1-1 1zm36 0a1 1 0 0 1-1-1v-4a1 1 0 0 1 2 0v4a1 1 0 0 1-1 1z"/><path fill="#A67C52" d="M45 42H1a1 1 0 0 1-1-1V1a1 1 0 0 1 1-1h44a1 1 0 0 1 1 1v40a1 1 0 0 1-1 1z"/><path fill="#5E4027" d="M2 2h42v18H2zm0 20h42v18H2z"/><path fill="#BFDEE0" d="M24 20h-1a1 1 0 0 1-1-1V7a1 1 0 0 1 1-1h1a1 1 0 0 1 1 1v12a1 1 0 0 1-1 1z"/><path fill="#E86C60" d="M14 40h-1a1 1 0 0 1-1-1V27a1 1 0 0 1 1-1h1a1 1 0 0 1 1 1v12a1 1 0 0 1-1 1z"/><path fill="#BFDEE0" d="M9 40H8a1 1 0 0 1-1-1V27a1 1 0 0 1 1-1h1a1 1 0 0 1 1 1v12a1 1 0 0 1-1 1z"/><path fill="#72C472" d="M24 40h-1a1 1 0 0 1-1-1V27a1 1 0 0 1 1-1h1a1 1 0 0 1 1 1v12a1 1 0 0 1-1 1z"/><path fill="#E6E6E6" d="M19 40h-1a1 1 0 0 1-1-1V27a1 1 0 0 1 1-1h1a1 1 0 0 1 1 1v12a1 1 0 0 1-1 1zm1-22v1a1 1 0 0 1-1 1H8a1 1 0 0 1-1-1v-1a1 1 0 0 1 1-1h11a1 1 0 0 1 1 1z"/><path fill="#EAD8C5" d="M40 38v1a1 1 0 0 1-1 1H28a1 1 0 0 1-1-1v-1a1 1 0 0 1 1-1h11a1 1 0 0 1 1 1zM29 20h-1a1 1 0 0 1-1-1V7a1 1 0 0 1 1-1h1a1 1 0 0 1 1 1v12a1 1 0 0 1-1 1z"/><path fill="#72C472" d="M34 20h-1a1 1 0 0 1-1-1V7a1 1 0 0 1 1-1h1a1 1 0 0 1 1 1v12a1 1 0 0 1-1 1z"/><path fill="#E86C60" d="M39 20h-1a1 1 0 0 1-1-1V7a1 1 0 0 1 1-1h1a1 1 0 0 1 1 1v12a1 1 0 0 1-1 1z"/></g></svg>