<svg xmlns="http://www.w3.org/2000/svg" width="43" height="44"><g fill="none"><path fill="#444" d="M41.356 22.388L26.27 1.815a6.589 6.589 0 0 0-.53-.702c-1.442-1.443-4.004-1.479-7.207-.105-2.919 1.25-6.136 3.548-9.057 6.469-2.921 2.921-5.219 6.137-6.469 9.056-1.374 3.206-1.337 5.766.105 7.208.045.045.499.411.707.533l20.567 15.083c.545.511 1.254.741 2.074.741 2.725 0 6.672-2.538 9.885-5.75 4.181-4.181 7.219-9.605 5.011-11.96z"/><path fill="#E86C60" d="M5.823 30.432c-.375-.541-1.271-.541-1.646 0C3.479 31.441 0 36.601 0 39c0 2.757 2.243 5 5 5s5-2.243 5-5c0-2.399-3.479-7.559-4.177-8.568z"/><path fill="#B3B3B3" d="M31 4h-3.128l1.467 2H31c3.859 0 7 3.14 7 7s-3.141 7-7 7h-8a1 1 0 1 0 0 2h8c4.963 0 9-4.038 9-9s-4.037-9-9-9z"/><path fill="#E86C60" d="M19.32 2.846c-2.69 1.153-5.684 3.3-8.43 6.045-2.745 2.746-4.892 5.739-6.045 8.429-1 2.334-1.119 4.205-.318 5.006.799.799 2.671.682 5.006-.318 2.69-1.153 5.684-3.3 8.429-6.045s4.893-5.739 6.046-8.43c1-2.333 1.119-4.205.318-5.005-.352-.352-.91-.526-1.623-.526-.911-.001-2.074.283-3.383.844z"/></g></svg>