<svg xmlns="http://www.w3.org/2000/svg" width="1024" height="81"><g fill="none" fill-rule="evenodd"><path fill="#002C3A" d="M3 0h1018a3 3 0 0 1 3 3v32.574H0V3a3 3 0 0 1 3-3z"/><g transform="translate(10.787 10.367)"><circle cx="57.5" cy="7.5" r="7.5" fill="#2ACB42" opacity=".9"/><path fill="#FFC02F" d="M32.5 15a7.5 7.5 0 1 0 0-15 7.5 7.5 0 0 0 0 15z"/><circle cx="7.5" cy="7.5" r="7.5" fill="#FF5F57"/></g><path fill="#004053" d="M0 36h1024v45H0z"/><path fill="#002B36" d="M963.095 42.06a.453.453 0 0 0-.225.389v11.44a.303.303 0 0 1-.15.27.312.312 0 0 1-.313 0l-1.87-1.078a.896.896 0 0 0-.897 0l-7.462 4.307a.919.919 0 0 0-.449.793v8.614c0 .321.17.616.449.777l7.462 4.307a.894.894 0 0 0 .897 0L968 67.572a.896.896 0 0 0 .448-.777V45.32a.912.912 0 0 0-.463-.793l-4.442-2.482a.439.439 0 0 0-.224-.045.453.453 0 0 0-.224.06zM914.91 52.857l-7.462 4.307a.894.894 0 0 0-.449.778l.015 11.56c0 .16.083.31.224.388.139.083.31.083.449 0l4.426-2.542a.914.914 0 0 0 .464-.778v-5.398c0-.322.17-.618.449-.778l1.884-1.092a.884.884 0 0 1 .449-.12c.153 0 .311.04.448.12l1.884 1.092c.28.16.45.456.45.778v5.398c0 .322.184.613.463.778l4.426 2.542a.45.45 0 0 0 .673-.389l.015-11.56a.89.89 0 0 0-.448-.777l-7.463-4.307a.838.838 0 0 0-.404-.105h-.09a.844.844 0 0 0-.403.105zm67.011.12l-7.462 4.307a.895.895 0 0 0-.449.777v8.614a.9.9 0 0 0 .464.778l7.403 4.217a.898.898 0 0 0 .882.015l4.486-2.498a.442.442 0 1 0 .015-.778l-7.507-4.306a.483.483 0 0 1-.24-.404v-2.692c0-.16.1-.308.24-.389l2.333-1.346a.45.45 0 0 1 .449 0l2.332 1.346c.14.08.225.228.225.39v2.123a.447.447 0 0 0 .673.388l4.471-2.602a.899.899 0 0 0 .449-.777v-2.08a.898.898 0 0 0-.449-.778l-7.417-4.306a.894.894 0 0 0-.897 0zm-21.744 6.34l2.558 1.48c.069.04.12.115.12.195v2.961a.23.23 0 0 1-.12.195l-2.558 1.48a.226.226 0 0 1-.224 0l-2.557-1.48a.231.231 0 0 1-.12-.195v-2.96a.23.23 0 0 1 .12-.195l2.557-1.48a.197.197 0 0 1 .105-.03c.039 0 .084.01.12.03zm43.895-6.573a1.47 1.47 0 0 1 .732-.18c.26 0 .512.054.733.18l7.044 4.067c.456.264.733.759.733 1.287v8.12c0 .527-.277 1.02-.733 1.286l-7.044 4.053c-.225.13-.472.194-.733.194-.257 0-.507-.064-.732-.194l-2.363-1.391c-.35-.196-.175-.259-.06-.3a4.656 4.656 0 0 0 1.062-.478.188.188 0 0 1 .18 0l1.809 1.077a.217.217 0 0 0 .21 0l7.043-4.053a.225.225 0 0 0 .104-.194v-8.12a.238.238 0 0 0-.12-.195l-7.028-4.053a.207.207 0 0 0-.21 0l-7.028 4.053a.237.237 0 0 0-.12.195v8.12c0 .078.052.143.12.18l1.914 1.121c1.046.523 1.69-.1 1.69-.718v-8.015c0-.114.096-.195.21-.195h.882c.111 0 .21.081.21.195V66.8c0 1.396-.756 2.198-2.08 2.198-.406 0-.736.007-1.63-.433l-1.839-1.062a1.485 1.485 0 0 1-.733-1.286v-8.12c0-.528.277-1.024.733-1.287l7.044-4.067zm-66.264-.015a.9.9 0 0 1 .449.12l7.462 4.292c.279.16.449.47.449.792v8.614c0 .322-.17.616-.45.778l-7.461 4.306a.893.893 0 0 1-.898 0l-7.462-4.306a.895.895 0 0 1-.449-.778v-8.614c0-.322.17-.632.449-.792l7.462-4.292a.9.9 0 0 1 .449-.12zm65.68 7.911c0-1.42 1.195-2.273 3.2-2.273 2.255 0 3.374.79 3.515 2.467.005.058-.022.107-.06.15-.039.04-.093.075-.15.075h-.912a.204.204 0 0 1-.194-.165c-.219-.974-.753-1.286-2.198-1.286-1.618 0-1.795.565-1.795.987 0 .512.208.653 2.393.942 2.162.286 3.2.694 3.2 2.214 0 1.532-1.285 2.407-3.514 2.407-3.079 0-3.724-1.402-3.724-2.587 0-.113.097-.21.21-.21h.912c.101 0 .178.08.194.18.137.926.546 1.39 2.408 1.39 1.482 0 2.108-.334 2.108-1.12 0-.454-.179-.792-2.482-1.018-1.925-.19-3.11-.613-3.11-2.153zm-21.056-.224c.03 0 .049-.001.075.014l1.436.838c.053.03.09.088.09.15v1.644a.176.176 0 0 1-.09.15l-1.436.823a.157.157 0 0 1-.164 0l-1.436-.823a.175.175 0 0 1-.09-.15v-1.645c0-.061.036-.118.09-.149l1.436-.838c.027-.014.06-.014.09-.014z"/></g></svg>