<svg xmlns="http://www.w3.org/2000/svg" width="33" height="32"><path fill="#00212B" fill-rule="evenodd" d="M16.404 0C7.346 0 0 7.345 0 16.406c0 7.247 4.7 13.396 11.22 15.566.82.15 1.12-.356 1.12-.791 0-.39-.015-1.421-.023-2.79-4.563.991-5.526-2.2-5.526-2.2-.746-1.894-1.821-2.399-1.821-2.399-1.49-1.018.112-.997.112-.997 1.647.116 2.513 1.69 2.513 1.69 1.463 2.507 3.84 1.784 4.774 1.364.15-1.06.573-1.783 1.042-2.194-3.643-.414-7.473-1.821-7.473-8.107 0-1.791.64-3.256 1.689-4.403-.169-.415-.732-2.083.16-4.341 0 0 1.378-.441 4.512 1.682a15.713 15.713 0 0 1 4.107-.553c1.393.007 2.797.189 4.107.553 3.132-2.123 4.507-1.682 4.507-1.682.895 2.258.332 3.926.163 4.341 1.052 1.147 1.686 2.612 1.686 4.403 0 6.302-3.835 7.688-7.49 8.095.59.506 1.114 1.507 1.114 3.038 0 2.193-.02 3.962-.02 4.5 0 .439.295.95 1.128.789 6.513-2.174 11.21-8.319 11.21-15.564C32.81 7.345 25.463 0 16.403 0z"/></svg>