<svg xmlns="http://www.w3.org/2000/svg" width="93" height="56"><g fill="#D34A47"><path d="M24.642 28.932c-.066.096-.182.396-.352.904a146.984 146.984 0 0 0-1.403 4.476l-.87 2.898c-.3.987-.586 1.952-.86 2.9a451.483 451.483 0 0 0-1.283 4.492 29.72 29.72 0 0 1-.266.918c-.08.305-.209.646-.387 1.02a6.872 6.872 0 0 1-.63 1.061 3.86 3.86 0 0 1-.798.833c-.292.22-.59.33-.896.33-.516 0-.892-.173-1.126-.517-.233-.343-.351-.976-.351-1.894v-.401c0-.135.008-.278.025-.429.016-.305.137-.88.362-1.724.225-.84.497-1.792.81-2.856.313-1.064.654-2.16 1.016-3.302.363-1.138.69-2.158.98-3.057a48.237 48.237 0 0 1-2.784 2.857c-1 .948-2.027 1.797-3.073 2.554a17.976 17.976 0 0 1-3.172 1.85c-1.065.478-2.09.717-3.073.717-1.128 0-2.1-.25-2.916-.745a6.404 6.404 0 0 1-2.021-1.952 8.827 8.827 0 0 1-1.187-2.727A12.298 12.298 0 0 1 0 34.095v-.374c0-.116.008-.228.025-.344a34.81 34.81 0 0 1 .785-5.655 45.998 45.998 0 0 1 1.684-5.767 53.388 53.388 0 0 1 2.408-5.611 49.225 49.225 0 0 1 2.977-5.18 40.294 40.294 0 0 1 3.424-4.492c1.211-1.369 2.453-2.546 3.727-3.53s2.562-1.754 3.86-2.309C20.19.278 21.478 0 22.752 0c1.47 0 2.89.401 4.26 1.204 1.37.803 2.652 2.106 3.847 3.904.275.401.448.808.519 1.22.071.413.11.8.11 1.163 0 .86-.206 1.54-.618 2.038-.412.497-.9.745-1.464.745-.516 0-.997-.273-1.439-.82-.445-.544-.939-1.325-1.488-2.34-.517-.917-1.085-1.583-1.706-1.995a3.582 3.582 0 0 0-2.02-.616c-1.13 0-2.338.47-3.62 1.408-1.283.937-2.554 2.177-3.812 3.716-1.258 1.54-2.466 3.3-3.62 5.282a55.041 55.041 0 0 0-3.061 6.083 43.476 43.476 0 0 0-2.118 6.142c-.524 2.018-.785 3.832-.785 5.44 0 .537.035 1.086.11 1.65.074.564.208 1.078.412 1.537.2.459.475.838.823 1.132.346.297.786.446 1.319.446.596 0 1.274-.2 2.032-.602a15.132 15.132 0 0 0 2.359-1.578 30.044 30.044 0 0 0 2.458-2.21 39.222 39.222 0 0 0 4.185-4.922c.549-.775.96-1.448 1.233-2.023l2.252-6.744c.274-.725.634-1.242 1.076-1.55.445-.305.9-.46 1.368-.46.225 0 .45.04.678.116a1.654 1.654 0 0 1 1.027.993c.105.258.157.56.157.904 0 .918-.08 1.779-.242 2.584a20.686 20.686 0 0 1-.618 2.354 39.04 39.04 0 0 1-.835 2.309c-.302.77-.601 1.578-.89 2.422zm30.52 5.625a22.911 22.911 0 0 1-2.48 2.798 25.062 25.062 0 0 1-2.916 2.425 17.52 17.52 0 0 1-2.952 1.707c-.97.432-1.84.646-2.614.646-.775 0-1.403-.258-1.89-.775-.483-.517-.724-1.396-.724-2.642 0-.88.129-1.905.387-3.07-.42.747-.945 1.503-1.574 2.267a13.79 13.79 0 0 1-2.156 2.095 10.649 10.649 0 0 1-2.71 1.534c-1 .393-2.09.589-3.268.589a5.797 5.797 0 0 1-1.538-.201 3.231 3.231 0 0 1-1.293-.687c-.371-.325-.67-.76-.896-1.306-.225-.545-.337-1.23-.337-2.051 0-.02.033-.31.096-.874.063-.564.269-1.455.618-2.67.346-1.215.884-2.787 1.609-4.72.728-1.933 1.752-4.275 3.073-7.032.338-.726.73-1.248 1.172-1.565a2.43 2.43 0 0 1 1.44-.472c.225 0 .458.033.703.099.241.068.466.173.678.316.209.143.379.324.508.544.129.22.195.473.195.762 0 .192-.025.373-.074.544-.08.327-.253.75-.522 1.278-.266.528-.577 1.13-.931 1.81-.354.678-.73 1.41-1.126 2.196a31.28 31.28 0 0 0-1.101 2.438 24.557 24.557 0 0 0-.87 2.568 11.174 11.174 0 0 0-.413 2.54c0 .344.08.66.242.949.162.285.428.431.8.431 1.048 0 2.048-.343 3-1.033.954-.688 1.832-1.546 2.64-2.568a24.41 24.41 0 0 0 2.191-3.302 41.285 41.285 0 0 0 1.634-3.227c.308-.652.577-1.35.81-2.095.234-.745.49-1.435.764-2.068.274-.632.588-1.157.945-1.578.354-.42.799-.632 1.331-.632.58 0 1.041.22 1.379.66.338.44.508.968.508 1.578 0 .344-.107.82-.327 1.421-.22.602-.491 1.292-.824 2.068-.33.775-.689 1.602-1.076 2.482-.387.88-.747 1.776-1.077 2.683-.332.91-.604 1.798-.823 2.67-.217.871-.327 1.68-.327 2.424 0 .69.354 1.034 1.065 1.034.5 0 1.12-.173 1.865-.517.744-.343 1.521-.827 2.337-1.449a21.74 21.74 0 0 0 2.444-2.196 17.625 17.625 0 0 0 2.167-2.727l.239 3.9z"/><path d="M55.915 33.122c-.178.44-.351.95-.522 1.536-.17.583-.252 1.106-.252 1.565 0 .286.05.517.145.69.096.173.283.258.558.258.338 0 .76-.118 1.271-.36a12.88 12.88 0 0 0 1.645-.948 25.62 25.62 0 0 0 1.84-1.35 56.72 56.72 0 0 0 3.705-3.214 70.961 70.961 0 0 0 1.538-1.507c.129-.134.282-.23.458-.285a1.5 1.5 0 0 1 .459-.086c.321 0 .59.135.799.402.209.266.313.621.313 1.06 0 .402-.113.853-.338 1.35-.225.498-.62.988-1.186 1.463a72.533 72.533 0 0 1-3.123 3.214 32.179 32.179 0 0 1-3.133 2.683 16.675 16.675 0 0 1-3.098 1.853c-1.024.46-2.02.687-2.99.687-.662 0-1.214-.104-1.659-.316a2.763 2.763 0 0 1-1.065-.86 3.44 3.44 0 0 1-.569-1.292 7.127 7.127 0 0 1-.17-1.578c0-.938.118-1.9.351-2.884.234-.984.511-1.889.835-2.71a339.83 339.83 0 0 1 1.72-4.449c.579-1.474 1.112-2.823 1.598-4.047l7.332-18.512c.291-.745.681-1.273 1.175-1.578.492-.306.989-.46 1.489-.46.5 0 .955.163 1.367.487.412.324.618.852.618 1.578 0 .344-.068.71-.206 1.091-.137.383-.31.795-.519 1.235-.403.899-.884 1.998-1.439 3.299a539.34 539.34 0 0 0-3.751 9.025 6113.06 6113.06 0 0 1-1.96 4.836 616.9 616.9 0 0 0-1.791 4.462 379.614 379.614 0 0 0-1.445 3.662z"/><path d="M90.212 27.926a5.43 5.43 0 0 1 .63-.374 1.24 1.24 0 0 1 .557-.143c.354 0 .62.16.799.473.178.316.266.704.266 1.163a3.86 3.86 0 0 1-.327 1.52 3.206 3.206 0 0 1-.98 1.292 252.45 252.45 0 0 0-4.622 4.19c-1.356 1.262-2.633 2.348-3.836 3.257-1.203.91-2.376 1.611-3.52 2.11a9.135 9.135 0 0 1-3.68.744c-1.228 0-2.176-.27-2.846-.803-.67-.536-1.005-1.273-1.005-2.21v-.214c0-.066.008-.149.025-.245.063-.575.316-1.234.75-1.98a23.52 23.52 0 0 1 1.573-2.325 60.582 60.582 0 0 1 1.96-2.439c.696-.822 1.335-1.602 1.926-2.34a23.038 23.038 0 0 0 1.464-2.023c.387-.613.582-1.108.582-1.492a.67.67 0 0 0-.242-.545c-.162-.134-.428-.2-.799-.2-.645 0-1.31.167-1.996.503a9.894 9.894 0 0 0-2.033 1.347c-.67.563-1.323 1.21-1.96 1.938a28.338 28.338 0 0 0-1.791 2.268 32.794 32.794 0 0 0-2.697 4.564c-.096.211-.233.508-.412.89-.178.382-.37.814-.58 1.292-.21.479-.43.97-.666 1.477-.234.508-.448.987-.64 1.435l-.522 1.207c-.154.354-.264.596-.327.73-.082.174-.214.498-.4.977-.188.478-.399 1.036-.643 1.68-.242.64-.497 1.314-.761 2.023-.266.71-.516 1.377-.75 2.01-.233.632-.44 1.184-.618 1.663-.178.478-.29.802-.34.976-.162.497-.352.965-.569 1.407-.217.44-.467.828-.75 1.163a3.407 3.407 0 0 1-.969.803c-.362.2-.771.3-1.222.3-.582 0-1.06-.14-1.442-.416-.379-.277-.568-.808-.568-1.591 0-.383.05-.776.145-1.177.097-.401.22-.8.363-1.19.146-.394.294-.776.448-1.147.153-.374.293-.731.423-1.077a496.15 496.15 0 0 1 2.663-5.754 254.817 254.817 0 0 0 2.601-5.713 139.94 139.94 0 0 0 2.312-5.553 56.396 56.396 0 0 0 1.766-5.224c.13-.343.308-.833.533-1.465a19.96 19.96 0 0 1 .774-1.867 7.923 7.923 0 0 1 .98-1.591c.363-.451.756-.674 1.173-.674.646 0 1.112.148 1.404.445.29.297.436.732.436 1.306 0 .116-.016.297-.05.545a19.122 19.122 0 0 1-.277 1.578 4.01 4.01 0 0 1-.156.544 33.018 33.018 0 0 1 1.936-1.938c.695-.64 1.411-1.22 2.156-1.738a12.42 12.42 0 0 1 2.274-1.264 5.972 5.972 0 0 1 2.323-.487c.533 0 1.06.077 1.584.231a4.58 4.58 0 0 1 1.404.674c.412.296.747.67 1.005 1.118.258.451.387.97.387 1.565 0 .786-.198 1.622-.593 2.512a18.34 18.34 0 0 1-1.489 2.684 33.957 33.957 0 0 1-1.936 2.625 97.102 97.102 0 0 1-1.95 2.326c-.604.698-1.112 1.292-1.524 1.778-.412.49-.626.82-.642.99 0 .231.074.415.217.561.143.146.387.214.727.214.275 0 .679-.154 1.212-.459.532-.305 1.28-.835 2.238-1.591s2.177-1.77 3.655-3.044a383.616 383.616 0 0 0 5.46-4.805z"/></g></svg>