<svg xmlns="http://www.w3.org/2000/svg" width="216" height="59"><g fill="none" fill-rule="evenodd"><path fill="#404137" d="M109.106.367a.871.871 0 0 0-.433.116.881.881 0 0 0-.433.755v22.223a.59.59 0 0 1-.289.523.6.6 0 0 1-.606 0l-3.61-2.092a1.72 1.72 0 0 0-1.732 0L87.594 30.26a1.787 1.787 0 0 0-.866 1.54v16.73c0 .625.328 1.198.866 1.51l14.409 8.367a1.717 1.717 0 0 0 1.732 0l14.409-8.366c.538-.313.866-.886.866-1.51V6.815c0-.635-.344-1.23-.895-1.54L109.539.454a.843.843 0 0 0-.433-.087zM16.419 21.253c-.275.011-.533.06-.78.204L1.23 29.823a1.738 1.738 0 0 0-.866 1.51l.03 22.456c0 .312.16.602.432.755.268.162.6.162.866 0l8.547-4.938c.542-.324.895-.887.895-1.51V37.607c0-.625.327-1.2.867-1.51l3.638-2.12c.271-.159.563-.233.866-.233.297 0 .602.074.866.232l3.639 2.12c.539.312.866.886.866 1.511v10.487c0 .624.357 1.19.895 1.51l8.547 4.94c.268.16.6.16.866 0a.875.875 0 0 0 .433-.756l.029-22.455a1.73 1.73 0 0 0-.866-1.511l-14.41-8.365c-.243-.144-.503-.192-.78-.204h-.173zm129.473.204c-.3 0-.596.076-.866.232l-14.408 8.366a1.74 1.74 0 0 0-.867 1.511v16.733c0 .629.353 1.2.895 1.51l14.293 8.192a1.725 1.725 0 0 0 1.704.03l8.662-4.852a.86.86 0 1 0 .029-1.51l-14.495-8.367a.94.94 0 0 1-.462-.785v-5.229c0-.312.193-.599.462-.755l4.505-2.614a.86.86 0 0 1 .866 0l4.504 2.614a.87.87 0 0 1 .433.755v4.126a.87.87 0 0 0 .433.755.86.86 0 0 0 .867 0l8.633-5.055c.536-.313.866-.887.866-1.51v-4.038c0-.624-.329-1.198-.866-1.51l-14.322-8.367a1.71 1.71 0 0 0-.866-.233zm-43.08 12.491c.074 0 .163.019.23.058l4.938 2.876a.45.45 0 0 1 .23.377v5.752c0 .156-.095.3-.23.378l-4.938 2.876a.434.434 0 0 1-.433 0l-4.937-2.876a.45.45 0 0 1-.231-.378V37.26c0-.155.097-.299.23-.377l4.938-2.876a.379.379 0 0 1 .202-.057z"/><path fill="#83CD29" d="M189.06 21.05c-.5 0-.985.104-1.415.349l-13.6 7.901c-.88.51-1.415 1.474-1.415 2.498v15.774a2.89 2.89 0 0 0 1.415 2.499l3.552 2.062c1.725.856 2.361.843 3.147.843 2.555 0 4.013-1.56 4.013-4.27V33.134c0-.22-.189-.378-.404-.378h-1.703c-.219 0-.405.158-.405.378v15.57c0 1.202-1.244 2.41-3.263 1.395l-3.695-2.179c-.131-.071-.231-.198-.231-.349V31.798a.46.46 0 0 1 .23-.377l13.572-7.873a.398.398 0 0 1 .404 0l13.57 7.873c.13.078.232.223.232.377v15.774a.44.44 0 0 1-.202.378l-13.6 7.873a.417.417 0 0 1-.404 0l-3.494-2.092a.361.361 0 0 0-.347 0c-.964.55-1.145.614-2.05.93-.223.078-.561.2.116.58l4.562 2.702c.434.253.918.378 1.415.378.503 0 .98-.125 1.415-.378l13.6-7.872a2.893 2.893 0 0 0 1.414-2.499V31.798a2.889 2.889 0 0 0-1.414-2.498l-13.6-7.901c-.427-.245-.916-.349-1.415-.349zm-129.358.32c-.3 0-.598.076-.867.232l-14.408 8.337a1.787 1.787 0 0 0-.866 1.54V48.21c0 .626.328 1.198.866 1.511l14.408 8.366a1.716 1.716 0 0 0 1.733 0l14.408-8.366a1.74 1.74 0 0 0 .866-1.51V31.478c0-.626-.327-1.227-.866-1.54l-14.408-8.337a1.716 1.716 0 0 0-.866-.233zm149.541.087v.407h1.126v2.992h.462v-2.992h1.155v-.407h-2.743zm3.147 0v3.399h.434V22.85c0-.082.003-.208 0-.377-.006-.173 0-.323 0-.407v-.088l.952 2.876h.462l.982-2.876c0 .183-.024.36-.029.523-.002.16 0 .279 0 .349v2.004h.433v-3.398h-.635l-.982 2.876-.952-2.876h-.665zM192.698 32.32c-3.873 0-6.18 1.659-6.18 4.416 0 2.991 2.29 3.813 6.007 4.183 4.446.438 4.793 1.095 4.793 1.976 0 1.527-1.21 2.178-4.071 2.178-3.595 0-4.385-.902-4.65-2.701-.03-.193-.178-.349-.375-.349h-1.761a.413.413 0 0 0-.404.407c0 2.302 1.245 5.025 7.19 5.025 4.303 0 6.785-1.699 6.785-4.677 0-2.951-2.005-3.744-6.18-4.299-4.217-.561-4.619-.836-4.619-1.83 0-.82.34-1.917 3.465-1.917 2.79 0 3.822.605 4.244 2.498.037.178.193.32.376.32h1.761c.109 0 .214-.067.289-.146.074-.083.126-.178.115-.29-.272-3.26-2.433-4.794-6.785-4.794zm-46.835 3.98c-.057 0-.12 0-.173.03l-2.772 1.626a.34.34 0 0 0-.173.29v3.196c0 .12.07.23.173.29l2.772 1.598a.3.3 0 0 0 .318 0l2.772-1.598a.342.342 0 0 0 .173-.29v-3.196c0-.12-.07-.23-.173-.29l-2.772-1.627c-.052-.03-.087-.029-.145-.029z"/></g></svg>